<svg width="48" height="48" viewBox="0 0 48 48" fill="none" xmlns="http://www.w3.org/2000/svg">
<g clip-path="url(#clip0_518_5)">
<path d="M22 18H26V12H32V8H26V2H22V8H16V12H22V18ZM14 36C11.79 36 10.02 37.79 10.02 40C10.02 42.21 11.79 44 14 44C16.21 44 18 42.21 18 40C18 37.79 16.21 36 14 36ZM34 36C31.79 36 30.02 37.79 30.02 40C30.02 42.21 31.79 44 34 44C36.21 44 38 42.21 38 40C38 37.79 36.21 36 34 36ZM14.35 29.5C14.35 29.41 14.37 29.33 14.41 29.26L16.21 26H31.11C32.61 26 33.92 25.17 34.61 23.94L42.33 9.92L38.83 8H38.82L36.61 12L31.1 22H17.07L16.81 21.46L12.32 12L10.42 8L8.53 4H2V8H6L13.2 23.17L10.49 28.07C10.18 28.65 10 29.3 10 30C10 32.21 11.79 34 14 34H38V30H14.85C14.57 30 14.35 29.78 14.35 29.5Z" fill="#656565"/>
</g>
<defs>
<clipPath id="clip0_518_5">
<rect width="48" height="48" fill="white"/>
</clipPath>
</defs>
</svg>
